<?xml version="1.0" standalone="no"?><!DOCTYPE svg PUBLIC "-//W3C//DTD SVG 1.1//EN" "http://www.w3.org/Graphics/SVG/1.1/DTD/svg11.dtd"><svg t="1654506455767" class="icon" viewBox="0 0 1024 1024" version="1.1" xmlns="http://www.w3.org/2000/svg" p-id="8799" xmlns:xlink="http://www.w3.org/1999/xlink" width="200" height="200"><defs><style type="text/css">@font-face { font-family: "feedback-iconfont"; src: url("//at.alicdn.com/t/font_1031158_u69w8yhxdu.woff2?t=1630033759944") format("woff2"), url("//at.alicdn.com/t/font_1031158_u69w8yhxdu.woff?t=1630033759944") format("woff"), url("//at.alicdn.com/t/font_1031158_u69w8yhxdu.ttf?t=1630033759944") format("truetype"); }
</style></defs><path d="M51.2 358.4h921.6V256a51.2 51.2 0 0 0-51.2-51.2H102.4a51.2 51.2 0 0 0-51.2 51.2v102.4z m0 51.2v358.4a51.2 51.2 0 0 0 51.2 51.2h819.2a51.2 51.2 0 0 0 51.2-51.2V409.6H51.2z m51.2-256h819.2a102.4 102.4 0 0 1 102.4 102.4v512a102.4 102.4 0 0 1-102.4 102.4H102.4a102.4 102.4 0 0 1-102.4-102.4V256a102.4 102.4 0 0 1 102.4-102.4z m25.6 563.2h358.4a25.6 25.6 0 1 1 0 51.2h-358.4a25.6 25.6 0 1 1 0-51.2z m460.8 0h51.2a25.6 25.6 0 1 1 0 51.2h-51.2a25.6 25.6 0 1 1 0-51.2z" fill="#000000" p-id="8800"></path></svg>