<?xml version="1.0" standalone="no"?><!DOCTYPE svg PUBLIC "-//W3C//DTD SVG 1.1//EN" "http://www.w3.org/Graphics/SVG/1.1/DTD/svg11.dtd"><svg t="1654507694026" class="icon" viewBox="0 0 1024 1024" version="1.1" xmlns="http://www.w3.org/2000/svg" p-id="11786" xmlns:xlink="http://www.w3.org/1999/xlink" width="200" height="200"><defs><style type="text/css">@font-face { font-family: "feedback-iconfont"; src: url("//at.alicdn.com/t/font_1031158_u69w8yhxdu.woff2?t=1630033759944") format("woff2"), url("//at.alicdn.com/t/font_1031158_u69w8yhxdu.woff?t=1630033759944") format("woff"), url("//at.alicdn.com/t/font_1031158_u69w8yhxdu.ttf?t=1630033759944") format("truetype"); }
</style></defs><path fill="#6495ED" d="M879.679089 424.182521c-11.988368-5.566941-20.011313-11.5074-28.760825-12.909369-20.297846-3.259321-21.878899-15.810523-21.735632-32.833698 0.675401-78.413032 0.353051-156.836296 0.281417-235.254445-0.04605-48.209304-21.602598-70.098436-70.037036-70.139369-202.016529-0.158617-404.027942-0.163734-606.044471-0.005117-46.510568 0.035817-69.857952 22.84595-69.898886 68.716934-0.19955 226.735182-0.189317 453.465248-0.005117 680.20043 0.040933 48.439554 21.674232 69.167201 70.871054 69.213251 74.155959 0.071633 148.337501 1.094968 222.457643-0.598651 24.365602-0.557717 40.902693 4.190556 48.326987 29.006426 1.816419 6.068376 6.620976 11.24645 12.986119 21.617948-12.730285 0-21.479798 0-30.229311 0-91.204717 0-182.481067-2.205287-273.593684 0.716334-69.745385 2.235987-102.29255-37.684305-102.517684-103.315885C31.037745 624.648698 31.498246 410.694968 31.498246 196.746355c0-22.160316-0.071633-44.325748 0.01535-66.486064C31.805247 55.920132 65.959047 21.397931 140.038255 21.316065c155.986928-0.16885 311.973857-0.051167 467.955669-0.051167 57.1072 0 114.224634-0.414451 171.326718 0.13815 43.860131 0.424684 80.122001 14.275521 95.81484 60.054405 2.159236 6.303743 4.328706 13.037286 4.344056 19.581512C879.755839 207.557887 879.679089 314.081927 879.679089 424.182521z" p-id="11787"></path><path fill="#6495ED" d="M722.934892 1012.886584c-156.043212 3.760756-280.593294-127.932204-279.636476-275.640354 0.997751-153.592325 125.205017-280.240244 278.198691-280.127677 157.915915 0.117684 279.943477 123.849098 279.365293 278.966192C1000.299565 888.776535 883.378444 1014.319252 722.934892 1012.886584zM721.36919 963.444161c127.313086 0.353051 230.368021-101.187348 229.155369-227.620367-1.202418-124.913366-99.867246-227.605017-225.532764-229.170719-121.300994-1.509419-229.574936 102.241383-231.253205 227.789217C492.096138 857.482956 603.163784 967.005367 721.36919 963.444161z" p-id="11788"></path><path fill="#6495ED" d="M322.524439 518.56981c-0.005117-58.447769-0.005117-58.427302-59.087353-58.458002-14.490421-0.005117-29.24691 1.391735-43.348463-0.987518-6.063259-1.023335-10.775716-10.028681-16.102174-15.406306 5.781842-3.469105 11.43065-9.639814 17.371109-9.936581 23.818118-1.171718 47.728337-0.890301 71.592505-0.434917 20.077829 0.383751 32.178764-4.83014 29.993944-28.883626-2.00062-21.986349-1.396852-44.356448-0.117684-66.450247 1.002868-17.263659-6.590276-22.66175-22.293349-22.4315-24.718653 0.363284-49.534523 1.151252-74.125259-0.675401-7.874562-0.583301-15.170939-8.887663-22.733383-13.656403 7.654545-4.44639 15.242572-12.464218 22.9841-12.622835 18.573527-0.378634 26.637406-6.605626 24.391186-25.813621-1.279169-10.929216-1.361035-22.334283 0.404217-33.135582 0.818668-5.009224 7.327077-9.087213 11.256683-13.58477 4.395223 4.333823 11.5381 8.084345 12.607485 13.124269 2.07737 9.808664 1.780603 20.456463 0.614001 30.541428-2.379253 20.563913 4.640823 29.809744 26.545306 28.448708 22.932934-1.427552 46.044951-0.941468 69.034168-0.10745 17.821376 0.649818 24.69307-6.55446 22.958517-24.232569-1.074502-10.965033-1.683386-22.533833 0.787968-33.058832 1.335452-5.699975 9.563064-9.783081 14.684855-14.597871 3.156988 5.142258 7.715945 9.941698 9.102563 15.523989 1.596402 6.426543 0.961935 13.610353 0.286534 20.359246-2.30762 23.173417 2.916504 38.472273 31.196362 36.53817 6.165592-0.419567 12.929836 7.884795 19.417778 12.167451-6.764243 4.917124-13.257303 13.559187-20.333663 14.070854-24.600969 1.770369-49.452656 1.724319-74.115025 0.450267-22.4929-1.161485-30.254894 7.541978-28.085424 29.825094 1.893169 19.428012 1.995503 39.347224-0.01535 58.749653-2.46112 23.792535 9.476081 29.666477 29.589727 29.395293 21.310948-0.29165 42.770279-1.473602 63.886794 0.578184 9.813781 0.956818 18.967511 8.652296 28.423125 13.293119-9.936581 4.318473-19.648029 11.563684-29.86091 12.367001-23.726018 1.857353-47.728337 1.304752-71.561805 0.368401-15.795173-0.619118-20.896497 5.474841-20.328546 20.906731 0.977285 26.396922 1.033568 52.891061-0.2763 79.257283-0.3377 6.774477-7.214511 13.221486-11.087833 19.816879-4.548723-6.794943-11.865567-13.144736-13.042402-20.482047C320.99967 546.097517 322.529556 532.210863 322.524439 518.56981z" p-id="11789"></path><path fill="#6495ED" d="M635.818398 290.632209c-17.018058 0.020467-34.19985 1.422435-50.967191-0.619118-7.398711-0.900535-13.942937-8.80068-20.870914-13.518253 6.390726-4.349173 12.663769-12.233968 19.197761-12.453985 36.53817-1.243352 73.168441-1.284285 109.701494-0.020467 6.063259 0.209784 11.839984 8.86208 17.744626 13.61547-6.216759 4.328706-12.146984 11.783701-18.706561 12.387468C673.35432 291.716944 654.535192 290.611742 635.818398 290.632209z" p-id="11790"></path><path  fill="#6495ED" d="M205.956368 701.102044c42.96983 0 85.949893-0.347934 128.904372 0.542367 4.29289 0.086983 8.432279 7.721061 12.638185 11.855334-4.466857 4.026823-8.856963 11.435767-13.41592 11.543217-38.89184 0.915885-77.839964 1.217768-116.690871-0.29165-5.607875-0.2149-10.801299-11.031549-16.18404-16.941308C202.794264 705.579134 204.375316 703.33803 205.956368 701.102044z" p-id="11791"></path><path fill="#6495ED" d="M764.840454 605.655604c7.531744 3.039304 18.056743 3.929606 22.047749 9.501664 13.728037 19.172178 25.33777 39.874242 37.428471 60.192555 9.757498 16.398941 6.262809 25.445221-14.326688 25.378704-58.672903-0.19955-117.350922 0.358167-176.008474-0.644701-6.63121-0.112567-13.119153-8.283895-19.678729-12.714935 7.050777-3.939839 14.014571-11.09295 21.167681-11.2925 39.935642-1.110318 79.917334-0.537251 119.883676-0.537251 8.283895 0 16.567791 0 33.309549 0-10.356149-23.956268-18.30746-42.350712-26.258772-60.745156C763.218468 611.744446 764.032019 608.700025 764.840454 605.655604z" p-id="11792"></path><path fill="#6495ED" d="M653.946775 797.679268c12.402818 24.181402 21.392815 41.711128 30.879129 60.207905-8.995113 10.816649-16.818508 18.501894-27.256523-0.736801-12.049768-22.206366-26.396922-43.159147-39.398391-64.864078-7.526628-12.561435-3.156988-19.494529 11.1697-19.530345 62.080608-0.158617 124.171449-0.373517 186.241823 0.429801 5.490191 0.071633 10.893399 7.342427 16.332424 11.272033-6.262809 4.395223-12.413052 12.397701-18.808894 12.597252-38.231789 1.207535-76.519862 0.614001-114.792585 0.624234C686.560456 797.679268 674.812572 797.679268 653.946775 797.679268z" p-id="11793"></path></svg>